<svg xmlns="http://www.w3.org/2000/svg" width="480" height="1000" viewBox="0 0 480 1000" font-family="ui-monospace, SFMono-Regular, Menlo, Consolas, monospace"><defs><linearGradient id="ibg" x1="0" y1="0" x2="0" y2="1"><stop offset="0" stop-color="#111722"/><stop offset="1" stop-color="#0d1117"/></linearGradient></defs><rect width="480" height="1000" rx="12" fill="url(#ibg)"/><rect x="0.5" y="0.5" width="479" height="999" rx="12" fill="none" stroke="#30363d"/><line x1="0" y1="30" x2="480" y2="30" stroke="#30363d"/><circle cx="20" cy="15.0" r="5" fill="#ff5f56"/><circle cx="36" cy="15.0" r="5" fill="#ffbd2e"/><circle cx="52" cy="15.0" r="5" fill="#27c93f"/><text x="240.0" y="19.0" fill="#7d8590" font-size="12" text-anchor="middle">JkTovar27@github: ~$ neofetch</text><g><text x="20" y="60.0" font-size="14" font-weight="700"><tspan fill="#3fb950">JkTovar27</tspan><tspan fill="#7d8590">@</tspan><tspan fill="#22d3ee">github</tspan></text><line x1="156" y1="56.0" x2="460" y2="56.0" stroke="#30363d" stroke-opacity="0.8"/></g><g><text x="20" y="80.5" fill="#ffa657" font-size="12.5" font-weight="700">Now</text><text x="112" y="80.5" fill="#c9d1d9" font-size="12.5">Systems &amp; Computer Engineering Student</text></g><g><text x="20" y="101.0" fill="#ffa657" font-size="12.5" font-weight="700">Prev</text><text x="112" y="101.0" fill="#c9d1d9" font-size="12.5">Developer @ CONOC3R</text></g><g><text x="20" y="121.5" fill="#ffa657" font-size="12.5" font-weight="700">Also</text><text x="112" y="121.5" fill="#c9d1d9" font-size="12.5">Promoter of AI in Public Education</text></g><g><text x="20" y="142.0" fill="#ffa657" font-size="12.5" font-weight="700">Edu</text><text x="112" y="142.0" fill="#c9d1d9" font-size="12.5">EIA University</text></g><g><text x="20" y="172.8" fill="#58a6ff" font-size="12.5" font-weight="700">&#8212; Stack</text><line x1="72" y1="168.8" x2="460" y2="168.8" stroke="#30363d" stroke-opacity="0.8"/></g><g><text x="20" y="193.2" fill="#ffa657" font-size="12.5" font-weight="700">AI / ML</text><text x="112" y="193.2" fill="#c9d1d9" font-size="12.5">PyTorch, TensorFlow, LLMs, RAG, LangChain</text></g><g><text x="20" y="213.8" fill="#ffa657" font-size="12.5" font-weight="700">LLMOps</text><text x="112" y="213.8" fill="#c9d1d9" font-size="12.5">MLflow, DVC, Prompt Eng, Fine-tuning</text></g><g><text x="20" y="234.2" fill="#ffa657" font-size="12.5" font-weight="700">Comp Prog</text><text x="112" y="234.2" fill="#c9d1d9" font-size="12.5">C++, Python, DSA, Algorithms, CP</text></g><g><text x="20" y="254.8" fill="#ffa657" font-size="12.5" font-weight="700">Quantum</text><text x="112" y="254.8" fill="#c9d1d9" font-size="12.5">Qiskit, Cirq, Pennylane, VQE, QAOA</text></g><g><text x="20" y="275.2" fill="#ffa657" font-size="12.5" font-weight="700">HPC</text><text x="112" y="275.2" fill="#c9d1d9" font-size="12.5">C/C++, CUDA, OpenMP, MPI, SIMD</text></g><g><text x="20" y="295.8" fill="#ffa657" font-size="12.5" font-weight="700">Systems</text><text x="112" y="295.8" fill="#c9d1d9" font-size="12.5">Linux, Docker, Git, CI/CD, Bash</text></g><g><text x="20" y="316.2" fill="#ffa657" font-size="12.5" font-weight="700">Data</text><text x="112" y="316.2" fill="#c9d1d9" font-size="12.5">PostgreSQL, Redis, Pandas, NumPy, Polars</text></g><g><text x="20" y="347.0" fill="#58a6ff" font-size="12.5" font-weight="700">&#8212; Projects</text><line x1="96" y1="343.0" x2="460" y2="343.0" stroke="#30363d" stroke-opacity="0.8"/></g><g><circle cx="23" cy="363.5" r="2.5" fill="#3fb950"/><text x="34" y="367.5" fill="#c9d1d9" font-size="12.5">CONOC3R — AI Education Platform (Founder)</text></g><g><circle cx="23" cy="384.0" r="2.5" fill="#3fb950"/><text x="34" y="388.0" fill="#c9d1d9" font-size="12.5">Quantum ML Research — VQE for NISQ devices</text></g><g><circle cx="23" cy="404.5" r="2.5" fill="#3fb950"/><text x="34" y="408.5" fill="#c9d1d9" font-size="12.5">Competitive Programming — ICPC Regionalist</text></g><g><text x="20" y="439.2" fill="#58a6ff" font-size="12.5" font-weight="700">&#8212; Highlights</text><line x1="112" y1="435.2" x2="460" y2="435.2" stroke="#30363d" stroke-opacity="0.8"/></g><g><circle cx="23" cy="455.8" r="2.5" fill="#3fb950"/><text x="34" y="459.8" fill="#c9d1d9" font-size="12.5">Founder at CONOC3R</text></g><g><circle cx="23" cy="476.2" r="2.5" fill="#3fb950"/><text x="34" y="480.2" fill="#c9d1d9" font-size="12.5">Leadership and Personal Growth</text></g><g><circle cx="23" cy="496.8" r="2.5" fill="#3fb950"/><text x="34" y="500.8" fill="#c9d1d9" font-size="12.5">AI First Mindset Advocate</text></g><g><circle cx="23" cy="517.2" r="2.5" fill="#3fb950"/><text x="34" y="521.2" fill="#c9d1d9" font-size="12.5">Open Source Contributor</text></g></svg>